<svg id="Capa_1" enable-background="new 0 0 512 512" height="512" viewBox="0 0 512 512" width="512" xmlns="http://www.w3.org/2000/svg"><path d="m512 256c0-140.61-115.39-256-256-256l-30 30v452l30 30c140.61 0 256-115.39 256-256z" fill="#756e6e"/><path d="m256 482h-45v-452h45c124.264 0 226 101.736 226 226 0 124.264-101.736 226-226 226z" fill="#ffb62a"/><path d="m211 421v-330h45c90.981 0 165 74.019 165 165s-74.019 165-165 165z" fill="#ff9100"/><path d="m211 361v-210h45c57.891 0 105 47.109 105 105s-47.109 105-105 105z" fill="#fa3423"/><path d="m256 301h-45v-90h45c24.853 0 45 20.147 45 45 0 24.853-20.147 45-45 45z" fill="#cd0000"/><path d="m211 130.272-210.024 106.445c-.482 6.389-.976 12.774-.976 19.283 0 120.747 85.443 222.933 198.316 249.174l57.684-150.385v-172.017z" fill="#4bb9ec"/><path d="m256 89.228v-89.228c-62.424 0-119.606 23.625-163.98 61l77.525 30z" fill="#4bb9ec"/><g fill="#b9dd39"><path d="m151 301v108.545l47.316 95.629c18.569 4.317 37.821 6.826 57.684 6.826v-157.211l-53.789-53.789z"/><path d="m199.545 61h-107.525c-50.951 42.918-85.743 105.374-91.044 175.717l71.567 34.283h78.457v-38.789l60-60v-11.938l45 22.5v-93.545z"/></g></svg>