<svg id="Capa_1" enable-background="new 0 0 497 497" height="512" viewBox="0 0 497 497" width="512" xmlns="http://www.w3.org/2000/svg"><g><path d="m490.761 10.535c-7.112-1.288-13.594-4.385-18.955-8.795-1.405-1.156-3.106-1.737-4.806-1.74l-30 80 30 10h30v-72.136c0-3.642-2.654-6.68-6.239-7.329z" fill="#26abff"/><path d="m462.218 1.722c-7.188 5.922-16.392 9.481-26.432 9.481-10.008 0-19.187-3.537-26.364-9.426-2.838-2.328-6.863-2.328-9.701 0-7.177 5.888-16.355 9.425-26.364 9.425-10.008 0-19.186-3.537-26.363-9.425-2.838-2.329-6.863-2.329-9.701 0-7.177 5.888-16.355 9.426-26.364 9.426s-19.187-3.537-26.364-9.426c-2.838-2.328-6.863-2.328-9.701 0-7.177 5.888-16.355 9.426-26.364 9.426s-19.187-3.537-26.364-9.426c-2.838-2.328-6.863-2.328-9.701 0-7.177 5.888-16.355 9.426-26.364 9.426s-19.186-3.537-26.364-9.426c-2.838-2.328-6.863-2.328-9.701 0-7.177 5.888-16.355 9.425-26.363 9.425s-19.187-3.537-26.364-9.426c-2.838-2.328-6.863-2.328-9.701 0-7.177 5.888-16.355 9.426-26.364 9.426-10.04 0-19.244-3.56-26.432-9.481-2.802-2.309-6.785-2.288-9.589.019-5.394 4.439-11.923 7.547-19.088 8.82-3.548.631-6.105 3.762-6.105 7.365v72.075h467v-89.999c-1.692-.002-3.384.568-4.782 1.721z" fill="#30caf3"/><path d="m490.761 70.535c-7.112-1.288-13.594-4.385-18.955-8.795-1.405-1.156-3.106-1.737-4.806-1.74l-30 80 30 327 30-60v-329.136c0-3.642-2.654-6.68-6.239-7.329z" fill="#3193e0"/><path d="m462.218 61.722c-7.188 5.922-16.392 9.481-26.432 9.481-10.008 0-19.187-3.537-26.364-9.426-2.838-2.328-6.863-2.328-9.701 0-7.177 5.888-16.355 9.425-26.364 9.425-10.008 0-19.186-3.537-26.363-9.425-2.838-2.329-6.863-2.329-9.701 0-7.177 5.888-16.355 9.426-26.364 9.426s-19.187-3.537-26.364-9.426c-2.838-2.328-6.863-2.328-9.701 0-7.177 5.888-16.355 9.426-26.364 9.426s-19.187-3.537-26.364-9.426c-2.838-2.328-6.863-2.328-9.701 0-7.177 5.888-16.355 9.426-26.364 9.426s-19.186-3.537-26.364-9.426c-2.838-2.328-6.863-2.328-9.701 0-7.177 5.888-16.355 9.425-26.363 9.425s-19.187-3.537-26.364-9.426c-2.838-2.328-6.863-2.328-9.701 0-7.177 5.888-16.355 9.426-26.364 9.426-10.04 0-19.244-3.56-26.432-9.481-2.802-2.309-6.785-2.288-9.589.019-5.395 4.438-11.924 7.546-19.089 8.819-3.547.632-6.104 3.763-6.104 7.366v329.075l467 60v-406.999c-1.692-.002-3.384.568-4.782 1.721z" fill="#26abff"/><path d="m437 417 30 80h22.5c4.142 0 7.5-3.358 7.5-7.5v-52.5z" fill="#a94525"/><path d="m7.5 497h459.5v-80h-447l-20 20v52.5c0 4.142 3.358 7.5 7.5 7.5z" fill="#d45223"/><path d="m135.069 331.411-6.729-11.649c-2.594-4.484-7.43-7.508-12.982-7.508s-10.388 3.024-12.982 7.508l-41.729 72.244c-5.36 9.278-15.262 14.994-25.978 14.994h-34.669v30h422.91l-191.732-271.977z" fill="#4663a2"/><g fill="#504b83"><path d="m497 407h-34.669c-10.716 0-20.618-5.716-25.978-14.995l-41.729-72.244c-2.594-4.484-7.43-7.508-12.982-7.508s-10.388 3.024-12.982 7.508l-6.729 11.649-100.449-173.902c-2.594-4.484-7.43-7.508-12.982-7.508s-10.388 3.024-12.982 7.508l-4.341 7.515 139.777 241.988c10.72 18.558 30.524 29.99 51.955 29.99h74.091z"/><circle cx="115.359" cy="377" r="7.5"/><circle cx="155.359" cy="407" r="7.5"/></g><circle cx="381.642" cy="377" fill="#5b3364" r="7.5"/></g></svg>