<svg id="Capa_1" enable-background="new 0 0 512 512" height="512" viewBox="0 0 512 512" width="512" xmlns="http://www.w3.org/2000/svg"><g><path d="m326.624 208.246-131.129-94.917-195.495 20v240.577l15 30h482l15-30v-115.66z" fill="#ffa64d"/><g fill="#ed8600"><path d="m250.458 153.114v250.792h246.542l15-30v-115.66l-185.376-50z"/><path d="m65.635 180.521c-8.284 0-15 6.716-15 15v9.569c0 8.284 6.716 15 15 15s15-6.716 15-15v-9.569c0-8.285-6.716-15-15-15z"/><path d="m125.809 272.834c-8.284 0-15 6.716-15 15v9.57c0 8.284 6.716 15 15 15s15-6.716 15-15v-9.57c0-8.284-6.716-15-15-15z"/><path d="m195.671 210.262c-8.284 0-15 6.716-15 15v9.569c0 8.284 6.716 15 15 15s15-6.716 15-15v-9.569c0-8.284-6.716-15-15-15z"/></g><path d="m266 296.291c-8.284 0-15 6.716-15 15v9.569c0 8.284 6.716 15 15 15s15-6.716 15-15v-9.569c0-8.284-6.716-15-15-15z" fill="#d36705"/><path d="m512 373.906h-512v81.596c0 8.284 6.716 15 15 15h482c8.284 0 15-6.716 15-15z" fill="#ed8600"/><path d="m250.458 470.502h246.542c8.284 0 15-6.716 15-15v-81.596h-261.542z" fill="#d36705"/><path d="m326.624 258.246h46.161l15-10 15 10h109.215v-76.832c0-8.284-6.716-15-15-15h-42.981l-12.818 10-17.182-10h-41.047l-69.907-72.093-15.002 5.529-14.399-35.849-17.402-17.946c-2.825-2.913-6.71-4.558-10.769-4.558h-162.093l-12.765 6-17.235-6h-48.4c-8.284 0-15 6.716-15 15v76.831h122.112l15-10 15 10h43.383l19.542 18.616 14.965-5.744 14.965 34.256 5.422 5.165 37.677 35.892 14.999-5.711 14.999 34.289z" fill="#b36b24"/><path d="m78.401 71.041c8.284 0 15-6.716 15-15v-14.543h-30v14.543c0 8.284 6.716 15 15 15z" fill="#99481f"/><path d="m497 166.414h-42.981l-12.818 10-17.182-10h-41.047l-69.907-72.093-15.002 5.529-14.399-35.849-17.402-17.946c-2.825-2.913-6.71-4.558-10.769-4.558h-5.037l-.07 144.124 37.677 35.892 14.999-5.711 14.999 34.289 8.559 8.154h46.161l15-10 15 10h109.219v-76.832c0-8.283-6.716-14.999-15-14.999z" fill="#99481f"/><path d="m137.112 100.087c-8.284 0-15 6.716-15 15v18.242h30v-18.242c0-8.284-6.716-15-15-15z" fill="#99481f"/><path d="m195.671 61.186c-8.284 0-15 6.716-15 15v18.535c0 8.284 6.716 15 15 15s15-6.716 15-15v-18.535c0-8.285-6.716-15-15-15z" fill="#99481f"/><path d="m439.019 197.788c8.284 0 15-6.716 15-15v-16.374h-30v16.374c0 8.284 6.716 15 15 15z" fill="#662828"/><path d="m387.786 226.875c-8.284 0-15 6.716-15 15v16.371h30v-16.371c0-8.284-6.716-15-15-15z" fill="#662828"/><path d="m303.066 203.033c-8.284 0-15 6.716-15 15v3.481l30 28.579v-32.06c0-8.284-6.716-15-15-15z" fill="#662828"/><path d="m283.066 104.464c0 8.284 6.716 15 15 15s15-6.716 15-15v-10.143l-29.942-30.879c-.029.379-.058.757-.058 1.143z" fill="#662828"/><path d="m245.033 148.342c0-8.284-6.716-15-15-15s-15 6.716-15 15v3.606l30 28.444c0-.043 0 .043 0 0z" fill="#99481f"/></g></svg>