<svg height="512pt" viewBox="-54 0 512 512.00077" width="512pt" xmlns="http://www.w3.org/2000/svg"><path d="m266.523438 424.910156c-.621094 0-1.25-.078125-1.878907-.234375l-115.539062-28.796875c-3.003907-.746094-5.269531-3.210937-5.765625-6.261718-.496094-3.054688.875-6.105469 3.484375-7.765626l75.894531-48.253906-43.113281-20.21875c-2.5-1.171875-4.183594-3.589844-4.421875-6.34375-.230469-2.753906 1.019531-5.421875 3.285156-7l45.65625-31.804687c3.503906-2.441407 8.324219-1.578125 10.761719 1.925781 2.441406 3.503906 1.582031 8.324219-1.921875 10.765625l-34.664063 24.144531 43.722657 20.503906c2.554687 1.199219 4.253906 3.691407 4.433593 6.507813.179688 2.8125-1.1875 5.503906-3.566406 7.019531l-72.5625 46.132813 98.058594 24.441406c4.144531 1.03125 6.664062 5.226563 5.632812 9.371094-.878906 3.515625-4.03125 5.867187-7.496093 5.867187zm0 0" fill="#ed9e27"/><g fill="#d6d3c4"><path d="m81.152344 260.402344c-1.980469 0-3.960938-.753906-5.46875-2.265625-70.546875-70.542969-70.546875-185.328125 0-255.871094 3.019531-3.019531 7.914062-3.019531 10.933594 0 3.019531 3.019531 3.019531 7.914063 0 10.933594-64.515626 64.515625-64.515626 169.488281 0 234.003906 3.019531 3.019531 3.019531 7.914063 0 10.933594-1.507813 1.511719-3.488282 2.265625-5.464844 2.265625zm0 0"/><path d="m326.089844 260.402344c-1.976563 0-3.957032-.753906-5.464844-2.265625-3.019531-3.019531-3.019531-7.914063 0-10.933594 64.515625-64.515625 64.515625-169.488281 0-234.003906-3.019531-3.019531-3.019531-7.914063 0-10.933594s7.914062-3.019531 10.933594 0c70.542968 70.542969 70.542968 185.328125 0 255.875-1.511719 1.507813-3.488282 2.261719-5.46875 2.261719zm0 0"/><path d="m110.308594 231.242188c-1.976563 0-3.957032-.753907-5.464844-2.265626-54.46875-54.464843-54.46875-143.089843 0-197.554687 3.019531-3.019531 7.914062-3.019531 10.933594 0 3.019531 3.019531 3.019531 7.917969 0 10.933594-48.4375 48.4375-48.4375 127.25 0 175.6875 3.019531 3.019531 3.019531 7.914062 0 10.933593-1.507813 1.511719-3.488282 2.265626-5.46875 2.265626zm0 0"/><path d="m296.929688 231.242188c-1.976563 0-3.957032-.753907-5.464844-2.265626-3.019532-3.019531-3.019532-7.914062 0-10.933593 23.421875-23.421875 36.324218-54.621094 36.324218-87.84375 0-33.222657-12.902343-64.417969-36.324218-87.84375-3.019532-3.019531-3.019532-7.914063 0-10.933594 3.019531-3.019531 7.914062-3.019531 10.933594 0 26.34375 26.34375 40.851562 61.425781 40.851562 98.777344 0 37.355469-14.507812 72.433593-40.851562 98.777343-1.511719 1.511719-3.488282 2.265626-5.46875 2.265626zm0 0"/><path d="m139.46875 202.085938c-1.976562 0-3.957031-.757813-5.464844-2.265626-38.390625-38.386718-38.390625-100.847656 0-139.238281 3.019532-3.019531 7.914063-3.019531 10.933594 0s3.019531 7.917969 0 10.933594c-32.359375 32.359375-32.359375 85.011719 0 117.367187 3.019531 3.019532 3.019531 7.917969 0 10.933594-1.511719 1.511719-3.488281 2.269532-5.46875 2.269532zm0 0"/><path d="m267.769531 202.085938c-1.976562 0-3.957031-.757813-5.464843-2.265626-3.019532-3.019531-3.019532-7.917968 0-10.933593 15.648437-15.648438 24.265624-36.488281 24.265624-58.683594s-8.617187-43.039063-24.265624-58.683594c-3.019532-3.019531-3.019532-7.917969 0-10.933593 3.019531-3.019532 7.914062-3.019532 10.933593 0 18.566407 18.566406 28.792969 43.289062 28.792969 69.617187 0 26.324219-10.226562 51.050781-28.792969 69.617187-1.507812 1.507813-3.488281 2.265626-5.46875 2.265626zm0 0"/></g><path d="m222.335938 176.023438h-37.421876l-106.816406 286.324218h251.042969zm-18.710938 67.828124 66.125 177.257813h-132.25zm0 0" fill="#fecf77"/><path d="m253.109375 130.199219c0 21.929687-14.269531 40.527343-34.019531 47.023437-4.867188 1.597656-10.0625 2.460938-15.464844 2.460938-27.332031 0-49.488281-22.152344-49.488281-49.484375 0-27.328125 22.15625-49.484375 49.488281-49.484375 5.402344 0 10.597656.867187 15.464844 2.464844 19.75 6.492187 34.019531 25.089843 34.019531 47.019531zm0 0" fill="#e33349"/><path d="m253.109375 130.199219c0 21.929687-14.269531 40.527343-34.019531 47.023437-19.765625-6.496094-34.035156-25.09375-34.035156-47.023437 0-21.929688 14.269531-40.527344 34.035156-47.019531 19.75 6.492187 34.019531 25.089843 34.019531 47.019531zm0 0" fill="#fd7369"/><path d="m404.507812 487.179688c0 6.855468-2.785156 13.066406-7.273437 17.558593-4.492187 4.492188-10.703125 7.261719-17.558594 7.261719h-354.855469c-13.710937 0-24.820312-11.109375-24.820312-24.820312 0-6.855469 2.78125-13.066407 7.273438-17.558594 4.492187-4.492188 10.691406-7.273438 17.546874-7.273438h354.855469c13.710938 0 24.832031 11.117188 24.832031 24.832032zm0 0" fill="#d6d3c4"/><path d="m404.507812 487.179688c0 6.855468-2.785156 13.066406-7.273437 17.558593-4.492187 4.492188-10.703125 7.261719-17.558594 7.261719h-271.398437c-13.703125 0-24.820313-11.109375-24.820313-24.820312 0-6.855469 2.78125-13.066407 7.273438-17.558594 4.492187-4.492188 10.703125-7.273438 17.546875-7.273438h271.398437c13.710938 0 24.832031 11.117188 24.832031 24.832032zm0 0" fill="#fcf3de"/></svg>