<svg id="Capa_1" enable-background="new 0 0 512 512" height="512" viewBox="0 0 512 512" width="512" xmlns="http://www.w3.org/2000/svg"><g><g><path d="m225.066 392.266v104.734h30.934l20-52.367-20-52.367z" fill="#b9c3cd"/><path d="m256 392.266h30.934v104.734h-30.934z" fill="#909ba6"/></g><g><path d="m256 512h-124.766v-30h124.766l20 15z" fill="#dce6eb"/></g><g><path d="m0 80.943v273.247l256 20 30-104.936-30-188.311z" fill="#07485e"/><path d="m512 80.943h-256v293.247l256-20z" fill="#04303e"/></g><g><path d="m0 354.19v61.867h256l20-30.934-20-30.933z" fill="#dce6eb"/><path d="m256 354.19h256v61.867h-256z" fill="#b9c3cd"/></g><g><path d="m256 482h124.766v30h-124.766z" fill="#b9c3cd"/></g><g><path d="m256 298.5c-82.428 0-149.25-66.821-149.25-149.25s66.822-149.25 149.25-149.25l20 144.041z" fill="#d4ecfd"/><path d="m256 0c82.428 0 149.25 66.821 149.25 149.25s-66.822 149.25-149.25 149.25z" fill="#addbfd"/></g><g><g><g><path d="m185.899 85.641v77.058l-14.406-14.406-21.213 21.213 43.352 43.353h22.267v-97.218h40.101l10-16.391-10-13.609z" fill="#6aa8ff"/><path d="m256 85.641h86.69v30h-86.69z" fill="#2681ff"/></g><g><path d="m242.762 153.715 13.238 13.238 10-13.238-10-13.238z" fill="#6aa8ff"/><path d="m242.762 185.147 13.238 13.238 10-14.885-10-11.59z" fill="#6aa8ff"/><path d="m316.621 153.715-21.213-21.213-15.716 15.716-15.716-15.716-7.976 7.975v26.476l2.479 2.478-2.479 2.479v26.475l7.976 7.975 15.716-15.716 15.716 15.716 21.213-21.213-15.716-15.716z" fill="#2681ff"/></g></g></g></g></svg>