<svg id="Group_221" data-name="Group 221" xmlns="http://www.w3.org/2000/svg" width="13" height="14.791" viewBox="0 0 13 14.791">
  <path id="Path_207" data-name="Path 207" d="M31.433,6.1H33.6V5.662a.433.433,0,0,1,.674-.361l2.6,1.733a.433.433,0,0,1,0,.721l-2.6,1.733a.433.433,0,0,1-.674-.361V8.7H31.433A.433.433,0,0,1,31,8.262V6.529a.433.433,0,0,1,.433-.433ZM38.113.082a.433.433,0,0,1,.39-.06l5.2,1.733a.433.433,0,0,1,.3.411V12.624a.433.433,0,0,1-.3.411l-5.2,1.733a.433.433,0,0,1-.57-.411V.433a.433.433,0,0,1,.18-.352ZM40.1,7.829a.433.433,0,1,0-.433-.433A.433.433,0,0,0,40.1,7.829Z" transform="translate(-31 0)" fill="#4041d2"/>
</svg>
