<svg id="Capa_1" enable-background="new 0 0 511.986 511.986" height="512" viewBox="0 0 511.986 511.986" width="512" xmlns="http://www.w3.org/2000/svg"><g><path d="m382.098 511.985h-252.209c-3.481 0-6.303-2.822-6.303-6.303v-34.761c0-3.481 2.822-6.303 6.303-6.303h252.209c3.481 0 6.303 2.822 6.303 6.303v34.761c0 3.481-2.822 6.303-6.303 6.303z" fill="#e4936b"/><path d="m366.74 464.618v47.367h15.357c3.481 0 6.303-2.822 6.303-6.303v-34.761c0-3.481-2.822-6.303-6.303-6.303z" fill="#e27d47"/><path d="m385.234 163.187h-258.482l29.907 301.432h198.668z" fill="#3b66c1"/><path d="m363.574 163.186-29.908 301.432h21.661l29.907-301.432z" fill="#30579d"/><path d="m187.118 361.479-6.377-59.878c-4.358-40.925 27.719-76.599 68.875-76.599h12.753c41.156 0 73.233 35.675 68.875 76.599l-6.377 59.878c-3.75 35.215-33.461 61.93-68.875 61.93-35.413 0-65.124-26.715-68.874-61.93z" fill="#90d8f9"/><path d="m262.37 225.002h-12.753c-1.498 0-2.981.061-4.454.154 38.986 2.464 68.621 37.01 64.421 76.445l-6.377 59.878c-3.36 31.555-27.57 56.269-58.045 61.069 3.535.556 7.149.861 10.83.861 35.415 0 65.125-26.714 68.875-61.93l6.377-59.878c4.359-40.925-27.718-76.599-68.874-76.599z" fill="#75cef9"/><path d="m340.273 163.187h-168.56l-31.112-83.509h230.784z" fill="#e4936b"/><path d="m349.725 79.678-31.112 83.508h21.66l31.112-83.508z" fill="#e27d47"/><path d="m269.304 373.477h-26.622c-4.612 0-8.35-3.738-8.35-8.35v-81.844c0-4.612 3.738-8.35 8.35-8.35h26.622c4.612 0 8.35 3.738 8.35 8.35v81.844c0 4.612-3.738 8.35-8.35 8.35z" fill="#f4fbff"/><path d="m269.304 274.933h-17.636c4.612 0 8.35 3.739 8.35 8.35v81.844c0 4.611-3.738 8.35-8.35 8.35h17.636c4.612 0 8.35-3.739 8.35-8.35v-81.844c0-4.611-3.738-8.35-8.35-8.35z" fill="#e4f6ff"/><g><path d="m174.916 87.405c-4.268 0-7.727-3.459-7.727-7.727v-32.227c0-2.049.814-4.014 2.263-5.464l11.327-11.327c3.018-3.016 7.91-3.016 10.928 0 3.017 3.018 3.017 7.91 0 10.928l-9.064 9.063v29.027c0 4.268-3.459 7.727-7.727 7.727z" fill="#30579d"/></g><path d="m187.245 34.981c-4.787-4.787-4.787-12.548 0-17.336l14.055-14.055c4.787-4.787 12.548-4.787 17.336 0 4.787 4.787 4.787 12.548 0 17.336l-14.055 14.055c-4.787 4.787-12.549 4.787-17.336 0z" fill="#3b66c1"/><g><g><path d="m206.106 143.386c-4.268 0-7.727-3.459-7.727-7.727v-25.838c0-4.268 3.459-7.727 7.727-7.727s7.727 3.459 7.727 7.727v25.838c0 4.268-3.459 7.727-7.727 7.727z" fill="#e27d47"/></g><g><path d="m305.879 143.386c-4.268 0-7.727-3.459-7.727-7.727v-25.838c0-4.268 3.459-7.727 7.727-7.727s7.727 3.459 7.727 7.727v25.838c0 4.268-3.459 7.727-7.727 7.727z" fill="#e27d47"/></g></g><g><g><path d="m160.01 206.779c-2.349 0-4.669-1.066-6.188-3.091l-5.058-6.743c-2.561-3.414-1.868-8.257 1.545-10.818 3.414-2.56 8.258-1.867 10.818 1.545l5.058 6.743c2.561 3.414 1.868 8.257-1.545 10.818-1.389 1.043-3.017 1.546-4.63 1.546z" fill="#f4fbff"/></g><g><path d="m351.976 206.779c-1.614 0-3.241-.503-4.63-1.545-3.414-2.561-4.106-7.404-1.545-10.818l5.058-6.743c2.562-3.415 7.406-4.106 10.818-1.545 3.414 2.561 4.106 7.404 1.545 10.818l-5.058 6.743c-1.519 2.023-3.839 3.09-6.188 3.09z" fill="#f4fbff"/></g></g><g><path d="m402.42 170.913h-292.854c-4.268 0-7.727-3.459-7.727-7.727s3.459-7.727 7.727-7.727h292.854c4.268 0 7.727 3.459 7.727 7.727-.001 4.268-3.46 7.727-7.727 7.727z" fill="#698ed5"/></g><g><path d="m388.401 87.405h-264.816c-4.268 0-7.727-3.459-7.727-7.727s3.459-7.727 7.727-7.727h264.816c4.268 0 7.727 3.459 7.727 7.727s-3.46 7.727-7.727 7.727z" fill="#ecbe6b"/></g></g></svg>